<svg width="1440" height="1024" viewBox="0 0 1440 1024" fill="none" xmlns="http://www.w3.org/2000/svg">
<path opacity="0.2" d="M1263.36 928.908L1345.77 926.426C1349.72 926.307 1353.04 928.977 1353.18 932.39L1354.87 974.102C1355.01 977.515 1351.91 980.378 1347.96 980.497L1265.54 982.979C1261.59 983.098 1258.27 980.428 1258.13 977.015L1256.44 935.303C1256.3 931.89 1259.4 929.027 1263.36 928.908Z" fill="#74F1C1" stroke="#220000" stroke-width="3"/>
<g opacity="0.2">
<path fill-rule="evenodd" clip-rule="evenodd" d="M1353.84 926.241L1309.18 956.487C1307.99 957.307 1306.54 957.778 1305.02 957.834C1303.51 957.89 1302.01 957.528 1300.75 956.799L1254.12 929.359" fill="#74F1C1"/>
<path d="M1353.84 926.241L1309.18 956.487C1307.99 957.307 1306.54 957.778 1305.02 957.834C1303.51 957.89 1302.01 957.528 1300.75 956.799L1254.12 929.359" stroke="#220000" stroke-width="3"/>
</g>
<path opacity="0.2" d="M1426.4 43.8366L1316.71 54.9606C1312.87 55.3507 1309.75 58.5175 1309.74 62.0338L1309.71 122.519C1309.71 126.035 1312.82 128.57 1316.67 128.179L1426.36 117.055C1430.2 116.665 1433.32 113.499 1433.32 109.982L1433.36 49.4971C1433.36 45.9808 1430.24 43.4465 1426.4 43.8366Z" fill="#74F1C1" stroke="#220000" stroke-width="3"/>
<g opacity="0.2">
<path fill-rule="evenodd" clip-rule="evenodd" d="M1308.51 56.3684L1367.59 89.74C1368.75 90.3748 1370.12 90.6504 1371.53 90.5305C1372.94 90.4107 1374.32 89.9011 1375.48 89.0685L1434.03 44.267" fill="#74F1C1"/>
<path d="M1308.51 56.3684L1367.59 89.74C1368.75 90.3748 1370.12 90.6504 1371.53 90.5305C1372.94 90.4107 1374.32 89.9011 1375.48 89.0685L1434.03 44.267" stroke="#220000" stroke-width="3"/>
</g>
<path opacity="0.2" d="M1041.51 320.217L956.262 256.72C953.451 254.626 949.113 255.296 946.574 258.215L899.439 312.401C896.9 315.321 897.119 319.385 899.93 321.478L985.18 384.976C987.99 387.069 992.328 386.4 994.868 383.48L1042 329.294C1044.54 326.374 1044.32 322.31 1041.51 320.217Z" fill="#74F1C1" stroke="#220000" stroke-width="3"/>
<g opacity="0.2">
<path fill-rule="evenodd" clip-rule="evenodd" d="M949.862 253.563L965.336 321.392C965.618 322.73 966.362 323.896 967.457 324.717C968.551 325.537 969.938 325.968 971.41 325.945L1046.45 325.468" fill="#74F1C1"/>
<path d="M949.862 253.563L965.336 321.392C965.618 322.73 966.362 323.896 967.457 324.717C968.551 325.537 969.938 325.968 971.41 325.945L1046.45 325.468" stroke="#220000" stroke-width="3"/>
</g>
<path opacity="0.2" d="M3.97683 982.228L61.5121 920.96C64.0044 918.306 68.5196 917.897 71.5973 920.046L113.392 949.23C116.469 951.379 116.944 955.273 114.452 957.927L56.9162 1019.19C54.424 1021.85 49.9087 1022.26 46.8311 1020.11L5.03682 990.924C1.95918 988.775 1.48461 984.882 3.97683 982.228Z" fill="#74F1C1" stroke="#220000" stroke-width="3"/>
<g opacity="0.2">
<path fill-rule="evenodd" clip-rule="evenodd" d="M67.4975 915.379L63.8924 968.778C63.7998 970.068 63.2473 971.302 62.3109 972.309C61.3746 973.316 60.1007 974.046 58.6649 974.399L-0.999976 988.451" fill="#74F1C1"/>
<path d="M67.4975 915.379L63.8924 968.778C63.7998 970.068 63.2473 971.302 62.3109 972.309C61.3746 973.316 60.1007 974.046 58.6649 974.399L-0.999976 988.451" stroke="#220000" stroke-width="3"/>
</g>
<path opacity="0.2" d="M1267.95 327.572L1290.07 251.077C1291.03 247.763 1288.69 244.408 1284.84 243.581L1232.66 232.362C1228.82 231.536 1224.93 233.553 1223.97 236.866L1201.85 313.361C1200.89 316.675 1203.23 320.031 1207.08 320.857L1259.26 332.076C1263.1 332.902 1266.99 330.886 1267.95 327.572Z" fill="#74F1C1" stroke="#220000" stroke-width="3"/>
<g opacity="0.2">
<path fill-rule="evenodd" clip-rule="evenodd" d="M1291.39 243.904L1244.55 278.068C1243.39 278.923 1242.58 280.076 1242.22 281.36C1241.87 282.645 1242 283.994 1242.59 285.212L1265.47 334.75" fill="#74F1C1"/>
<path d="M1291.39 243.904L1244.55 278.068C1243.39 278.923 1242.58 280.076 1242.22 281.36C1241.87 282.645 1242 283.994 1242.59 285.212L1265.47 334.75" stroke="#220000" stroke-width="3"/>
</g>
<path opacity="0.2" d="M1335.51 560.076L1423.13 565.36C1427.08 565.598 1430.06 568.553 1429.79 571.959L1426.16 616.679C1425.88 620.086 1422.46 622.654 1418.51 622.416L1330.88 617.132C1326.93 616.894 1323.95 613.939 1324.23 610.533L1327.85 565.813C1328.13 562.406 1331.56 559.838 1335.51 560.076Z" fill="#74F1C1" stroke="#220000" stroke-width="3"/>
<g opacity="0.2">
<path fill-rule="evenodd" clip-rule="evenodd" d="M1431.4 566.229L1381.4 593.433C1380.11 594.171 1378.57 594.525 1377.03 594.441C1375.48 594.358 1374.01 593.841 1372.83 592.97L1327.65 559.892" fill="#74F1C1"/>
<path d="M1431.4 566.229L1381.4 593.433C1380.11 594.171 1378.57 594.525 1377.03 594.441C1375.48 594.358 1374.01 593.841 1372.83 592.97L1327.65 559.892" stroke="#220000" stroke-width="3"/>
</g>
<path opacity="0.2" d="M324.206 812.094L189.711 785.318C185.852 784.55 182.002 786.625 181.111 789.952L161.754 862.25C160.864 865.577 163.269 868.898 167.128 869.666L301.624 896.441C305.482 897.21 309.333 895.135 310.223 891.807L329.58 819.51C330.471 816.182 328.065 812.862 324.206 812.094Z" fill="#74F1C1" stroke="#220000" stroke-width="3"/>
<g opacity="0.2">
<path fill-rule="evenodd" clip-rule="evenodd" d="M182.331 785.034L240.855 844.172C241.862 845.155 243.201 845.835 244.68 846.114C246.159 846.394 247.702 846.259 249.088 845.728L331.414 814.914" fill="#74F1C1"/>
<path d="M182.331 785.034L240.855 844.172C241.862 845.155 243.201 845.835 244.68 846.114C246.159 846.394 247.702 846.259 249.088 845.728L331.414 814.914" stroke="#220000" stroke-width="3"/>
</g>
<path opacity="0.2" d="M789.33 563.123L815.064 459.144C815.981 455.439 819.556 452.947 823.051 453.578L881.571 464.145C885.066 464.776 887.155 468.291 886.238 471.996L860.504 575.975C859.587 579.68 856.011 582.172 852.517 581.541L793.996 570.974C790.502 570.343 788.413 566.828 789.33 563.123Z" fill="#74F1C1" stroke="#220000" stroke-width="3"/>
<g opacity="0.2">
<path fill-rule="evenodd" clip-rule="evenodd" d="M817.777 451.655L841.697 514.166C842.159 515.438 842.217 516.863 841.864 518.245C841.511 519.627 840.763 520.899 839.724 521.886L788.334 570.778" fill="#74F1C1"/>
<path d="M817.777 451.655L841.697 514.166C842.159 515.438 842.217 516.863 841.864 518.245C841.511 519.627 840.763 520.899 839.724 521.886L788.334 570.778" stroke="#220000" stroke-width="3"/>
</g>
<path opacity="0.2" d="M600.758 488.903L535.982 540.787C533.176 543.034 532.649 547.364 534.803 550.458L564.065 592.474C566.219 595.568 570.241 596.254 573.046 594.007L637.822 542.123C640.628 539.875 641.156 535.545 639.001 532.451L609.74 490.435C607.585 487.342 603.564 486.655 600.758 488.903Z" fill="#74F1C1" stroke="#220000" stroke-width="3"/>
<g opacity="0.2">
<path fill-rule="evenodd" clip-rule="evenodd" d="M530.269 545.634L585.162 545.667C586.5 545.635 587.784 545.149 588.833 544.278C589.882 543.407 590.643 542.195 591.009 540.812L607.013 484.533" fill="#74F1C1"/>
<path d="M530.269 545.634L585.162 545.667C586.5 545.635 587.784 545.149 588.833 544.278C589.882 543.407 590.643 542.195 591.009 540.812L607.013 484.533" stroke="#220000" stroke-width="3"/>
</g>
<path opacity="0.2" d="M743.846 700.949L843.697 763.08C846.941 765.099 848.226 769.278 846.568 772.415L815.031 832.052C813.372 835.189 809.398 836.095 806.154 834.077L706.302 771.945C703.058 769.927 701.773 765.747 703.432 762.611L734.969 702.974C736.627 699.837 740.602 698.93 743.846 700.949Z" fill="#74F1C1" stroke="#220000" stroke-width="3"/>
<g opacity="0.2">
<path fill-rule="evenodd" clip-rule="evenodd" d="M849.811 768.177L776.915 772.841C775.537 772.903 774.131 772.514 772.899 771.727C771.667 770.941 770.672 769.798 770.056 768.463L736.819 697.948" fill="#74F1C1"/>
<path d="M849.811 768.177L776.915 772.841C775.537 772.903 774.131 772.514 772.899 771.727C771.667 770.941 770.672 769.798 770.056 768.463L736.819 697.948" stroke="#220000" stroke-width="3"/>
</g>
<path opacity="0.2" d="M445.842 720.631L516.327 678.072C519.571 676.113 520.359 672.258 518.088 669.46L489.298 634.005C487.026 631.208 482.555 630.528 479.311 632.486L408.826 675.046C405.582 677.004 404.794 680.86 407.065 683.657L435.855 719.113C438.126 721.91 442.598 722.59 445.842 720.631Z" fill="#74F1C1" stroke="#220000" stroke-width="3"/>
<g opacity="0.2">
<path fill-rule="evenodd" clip-rule="evenodd" d="M522.804 674.219L464.991 673.45C463.503 673.445 462.051 673.842 460.839 674.587C459.626 675.331 458.714 676.386 458.231 677.601L439.197 724.798" fill="#74F1C1"/>
<path d="M522.804 674.219L464.991 673.45C463.503 673.445 462.051 673.842 460.839 674.587C459.626 675.331 458.714 676.386 458.231 677.601L439.197 724.798" stroke="#220000" stroke-width="3"/>
</g>
<path opacity="0.2" d="M768.898 908.601L834.704 989.641C836.975 992.439 841.446 993.119 844.69 991.16L901.96 956.581C905.204 954.622 905.992 950.766 903.721 947.969L837.915 866.928C835.643 864.131 831.172 863.451 827.928 865.41L770.659 899.989C767.415 901.948 766.626 905.803 768.898 908.601Z" fill="#74F1C1" stroke="#220000" stroke-width="3"/>
<g opacity="0.2">
<path fill-rule="evenodd" clip-rule="evenodd" d="M839.68 994.376L841.114 929.57C841.147 928.241 840.675 926.939 839.77 925.859C838.865 924.779 837.575 923.979 836.094 923.581L764.56 902.542" fill="#74F1C1"/>
<path d="M839.68 994.376L841.114 929.57C841.147 928.241 840.675 926.939 839.77 925.859C838.865 924.779 837.575 923.979 836.094 923.581L764.56 902.542" stroke="#220000" stroke-width="3"/>
</g>
<path opacity="0.2" d="M1017.78 666.282L1055.15 608.145C1057.07 605.159 1061.44 604.079 1064.9 605.735L1104.1 624.471C1107.56 626.126 1108.81 629.89 1106.89 632.876L1069.52 691.013C1067.6 694 1063.24 695.079 1059.77 693.423L1020.58 674.687C1017.11 673.032 1015.86 669.268 1017.78 666.282Z" fill="#74F1C1" stroke="#220000" stroke-width="3"/>
<g opacity="0.2">
<path fill-rule="evenodd" clip-rule="evenodd" d="M1059.38 601.365L1065.68 646.75C1065.89 648.074 1065.61 649.422 1064.86 650.595C1064.12 651.767 1062.95 652.701 1061.54 653.256L1013.37 672.463" fill="#74F1C1"/>
<path d="M1059.38 601.365L1065.68 646.75C1065.89 648.074 1065.61 649.422 1064.86 650.595C1064.12 651.767 1062.95 652.701 1061.54 653.256L1013.37 672.463" stroke="#220000" stroke-width="3"/>
</g>
<path opacity="0.2" d="M1109.3 916.916L1172.22 839.421C1174.04 837.183 1173.41 834.098 1170.81 832.531L1116.19 799.548C1113.59 797.981 1110.01 798.525 1108.2 800.763L1045.27 878.258C1043.45 880.496 1044.08 883.58 1046.68 885.147L1101.31 918.131C1103.9 919.698 1107.48 919.154 1109.3 916.916Z" fill="#74F1C1" stroke="#220000" stroke-width="2.4"/>
<g opacity="0.2">
<path fill-rule="evenodd" clip-rule="evenodd" d="M1174.54 834.407L1107.78 854.458C1106.65 854.813 1105.68 855.467 1105.01 856.325C1104.34 857.183 1103.99 858.203 1104.03 859.239L1104.74 920.316" fill="#74F1C1"/>
<path d="M1174.54 834.407L1107.78 854.458C1106.65 854.813 1105.68 855.467 1105.01 856.325C1104.34 857.183 1103.99 858.203 1104.03 859.239L1104.74 920.316" stroke="#220000" stroke-width="2.4"/>
</g>
<path opacity="0.2" d="M1131.19 480.957L1206.44 444.985C1209.91 443.329 1214.27 444.408 1216.19 447.395L1240.53 485.251C1242.45 488.238 1241.2 492.001 1237.73 493.657L1162.47 529.629C1159.01 531.285 1154.65 530.206 1152.73 527.219L1128.39 489.363C1126.47 486.376 1127.72 482.613 1131.19 480.957Z" fill="#74F1C1" stroke="#220000" stroke-width="3"/>
<g opacity="0.2">
<path fill-rule="evenodd" clip-rule="evenodd" d="M1213.82 441.396L1189.13 487.311C1188.48 488.449 1187.45 489.387 1186.17 489.999C1184.89 490.611 1183.42 490.868 1181.97 490.736L1124.17 484.821" fill="#74F1C1"/>
<path d="M1213.82 441.396L1189.13 487.311C1188.48 488.449 1187.45 489.387 1186.17 489.999C1184.89 490.611 1183.42 490.868 1181.97 490.736L1124.17 484.821" stroke="#220000" stroke-width="3"/>
</g>
<path opacity="0.2" d="M1433.77 765.974L1313.8 701.381C1310.35 699.528 1306.29 700.523 1304.71 703.604L1271.18 769.149C1269.61 772.23 1271.12 776.23 1274.56 778.083L1394.53 842.676C1397.98 844.529 1402.04 843.534 1403.62 840.453L1437.15 774.908C1438.72 771.827 1437.21 767.828 1433.77 765.974Z" fill="#74F1C1" stroke="#220000" stroke-width="3"/>
<g opacity="0.2">
<path fill-rule="evenodd" clip-rule="evenodd" d="M1306.45 699.003L1348.73 773.678C1349.44 774.913 1350.5 775.952 1351.78 776.655C1353.06 777.358 1354.49 777.689 1355.89 777.603L1439.81 770.844" fill="#74F1C1"/>
<path d="M1306.45 699.003L1348.73 773.678C1349.44 774.913 1350.5 775.952 1351.78 776.655C1353.06 777.358 1354.49 777.689 1355.89 777.603L1439.81 770.844" stroke="#220000" stroke-width="3"/>
</g>
<path opacity="0.2" d="M502.079 838.758L462.859 966.009C461.734 969.66 463.621 973.28 467.075 974.095L540.541 991.432C543.994 992.247 547.706 989.948 548.831 986.297L588.051 859.046C589.176 855.395 587.289 851.775 583.836 850.96L510.369 833.623C506.916 832.808 503.205 835.107 502.079 838.758Z" fill="#74F1C1" stroke="#220000" stroke-width="3"/>
<g opacity="0.2">
<path fill-rule="evenodd" clip-rule="evenodd" d="M462.051 973.46L528.239 917.317C529.333 916.386 530.151 915.156 530.582 913.795C531.013 912.433 531.035 911.008 530.646 909.713L505.584 831.974" fill="#74F1C1"/>
<path d="M462.051 973.46L528.239 917.317C529.333 916.386 530.151 915.156 530.582 913.795C531.013 912.433 531.035 911.008 530.646 909.713L505.584 831.974" stroke="#220000" stroke-width="3"/>
</g>
</svg>

