<svg width="560" height="408" viewBox="0 0 560 408" fill="none" xmlns="http://www.w3.org/2000/svg">
<path d="M428.678 121.225H83.8843V330.565H428.678V121.225Z" fill="#F2F2F2"/>
<path d="M559.421 0.534027H0.578491V407.466H559.421V0.534027Z" stroke="#3F3D56" stroke-miterlimit="10"/>
<path d="M1.15704 24.0314H560" stroke="#3F3D56" stroke-miterlimit="10"/>
<path d="M12.1488 18.6911C15.3438 18.6911 17.9339 16.3001 17.9339 13.3508C17.9339 10.4014 15.3438 8.01047 12.1488 8.01047C8.95374 8.01047 6.36365 10.4014 6.36365 13.3508C6.36365 16.3001 8.95374 18.6911 12.1488 18.6911Z" fill="#F86B75"/>
<path d="M28.3471 18.6911C31.5421 18.6911 34.1323 16.3001 34.1323 13.3508C34.1323 10.4014 31.5421 8.01047 28.3471 8.01047C25.1521 8.01047 22.562 10.4014 22.562 13.3508C22.562 16.3001 25.1521 18.6911 28.3471 18.6911Z" fill="#FAD375"/>
<path d="M44.5454 18.6911C47.7404 18.6911 50.3306 16.3001 50.3306 13.3508C50.3306 10.4014 47.7404 8.01047 44.5454 8.01047C41.3504 8.01047 38.7603 10.4014 38.7603 13.3508C38.7603 16.3001 41.3504 18.6911 44.5454 18.6911Z" fill="#8BCC55"/>
<path d="M14.4628 15.4869C17.6578 15.4869 20.2479 13.096 20.2479 10.1466C20.2479 7.19723 17.6578 4.80629 14.4628 4.80629C11.2678 4.80629 8.67767 7.19723 8.67767 10.1466C8.67767 13.096 11.2678 15.4869 14.4628 15.4869Z" stroke="#3F3D56" stroke-miterlimit="10"/>
<path d="M30.6612 15.4869C33.8562 15.4869 36.4463 13.096 36.4463 10.1466C36.4463 7.19723 33.8562 4.80629 30.6612 4.80629C27.4662 4.80629 24.876 7.19723 24.876 10.1466C24.876 13.096 27.4662 15.4869 30.6612 15.4869Z" stroke="#3F3D56" stroke-miterlimit="10"/>
<path d="M46.8595 15.4869C50.0545 15.4869 52.6447 13.096 52.6447 10.1466C52.6447 7.19723 50.0545 4.80629 46.8595 4.80629C43.6645 4.80629 41.0744 7.19723 41.0744 10.1466C41.0744 13.096 43.6645 15.4869 46.8595 15.4869Z" stroke="#3F3D56" stroke-miterlimit="10"/>
<path d="M455.868 98.2618H111.074V307.602H455.868V98.2618Z" stroke="#3F3D56" stroke-miterlimit="10"/>
<path opacity="0.2" d="M450.083 353.529H386.446V369.55H450.083V353.529Z" fill="#74F1C1"/>
<path d="M455.868 350.325H392.231V366.346H455.868V350.325Z" stroke="#3F3D56" stroke-miterlimit="10"/>
<path opacity="0.2" d="M287.393 223.808L260.771 198.481C260.191 197.94 259.496 197.515 258.73 197.232C257.966 196.948 257.145 196.811 256.32 196.83H256.242C255.417 196.811 254.596 196.948 253.832 197.232C253.066 197.515 252.371 197.94 251.791 198.481L225.169 223.808C224.581 224.316 224.112 224.929 223.792 225.61C223.471 226.292 223.306 227.027 223.306 227.77C223.306 228.513 223.471 229.248 223.792 229.929C224.112 230.611 224.581 231.224 225.169 231.731C226.386 232.783 227.991 233.369 229.659 233.369C231.326 233.369 232.931 232.783 234.148 231.731L249.923 216.509V255.756C249.997 257.268 250.698 258.694 251.883 259.74C253.067 260.786 254.643 261.369 256.281 261.369C257.919 261.369 259.495 260.786 260.679 259.74C261.864 258.694 262.565 257.268 262.639 255.756V216.509L278.414 231.731C279.631 232.783 281.236 233.369 282.904 233.369C284.571 233.369 286.176 232.783 287.393 231.731C287.981 231.224 288.45 230.611 288.77 229.929C289.091 229.248 289.256 228.513 289.256 227.77C289.256 227.027 289.091 226.292 288.77 225.61C288.45 224.929 287.981 224.316 287.393 223.808Z" fill="#74F1C1"/>
</svg>
